<?xml version="1.0" encoding="UTF-8" standalone="no"?>
<!-- Generator: Adobe Illustrator 19.1.0, SVG Export Plug-In . SVG Version: 6.00 Build 0)  -->

<svg
   xmlns:dc="http://purl.org/dc/elements/1.1/"
   xmlns:cc="http://creativecommons.org/ns#"
   xmlns:rdf="http://www.w3.org/1999/02/22-rdf-syntax-ns#"
   xmlns:svg="http://www.w3.org/2000/svg"
   xmlns="http://www.w3.org/2000/svg"
   xmlns:sodipodi="http://sodipodi.sourceforge.net/DTD/sodipodi-0.dtd"
   xmlns:inkscape="http://www.inkscape.org/namespaces/inkscape"
   version="1.1"
   id="Layer_1"
   x="0px"
   y="0px"
   viewBox="0 0 1124.6017 983.86499"
   xml:space="preserve"
   sodipodi:docname="TF's icke-formella logo.svg"
   inkscape:version="0.92.2 2405546, 2018-03-11"
   width="1124.6017"
   height="983.86499"><metadata
   id="metadata881"><rdf:RDF><cc:Work
       rdf:about=""><dc:format>image/svg+xml</dc:format><dc:type
         rdf:resource="http://purl.org/dc/dcmitype/StillImage" /></cc:Work></rdf:RDF></metadata><defs
   id="defs879" /><sodipodi:namedview
   pagecolor="#ffffff"
   bordercolor="#666666"
   borderopacity="1"
   objecttolerance="10"
   gridtolerance="10"
   guidetolerance="10"
   inkscape:pageopacity="0"
   inkscape:pageshadow="2"
   inkscape:window-width="1326"
   inkscape:window-height="699"
   id="namedview877"
   showgrid="false"
   inkscape:zoom="0.70710678"
   inkscape:cx="534.82752"
   inkscape:cy="293.15619"
   inkscape:window-x="20"
   inkscape:window-y="49"
   inkscape:window-maximized="1"
   inkscape:current-layer="layer1"
   inkscape:measure-start="79.4141,39.2773"
   inkscape:measure-end="79.668,39.5234" />
<style
   type="text/css"
   id="style868">
	.st0{fill:#FFFFFF;}
	.st1{fill:none;stroke:#FFFFFF;stroke-width:2.4405;stroke-miterlimit:10;}
</style>

<g
   inkscape:groupmode="layer"
   id="layer2"
   inkscape:label="cog"
   style="display:inline"
   transform="translate(501.30046,432.95392)"><path
     style="color:#000000;font-style:normal;font-variant:normal;font-weight:normal;font-stretch:normal;font-size:medium;line-height:normal;font-family:sans-serif;font-variant-ligatures:normal;font-variant-position:normal;font-variant-caps:normal;font-variant-numeric:normal;font-variant-alternates:normal;font-feature-settings:normal;text-indent:0;text-align:start;text-decoration:none;text-decoration-line:none;text-decoration-style:solid;text-decoration-color:#000000;letter-spacing:normal;word-spacing:normal;text-transform:none;writing-mode:lr-tb;direction:ltr;text-orientation:mixed;dominant-baseline:auto;baseline-shift:baseline;text-anchor:start;white-space:normal;shape-padding:0;clip-rule:nonzero;display:inline;overflow:visible;visibility:visible;opacity:1;isolation:auto;mix-blend-mode:normal;color-interpolation:sRGB;color-interpolation-filters:linearRGB;solid-color:#000000;solid-opacity:1;vector-effect:none;fill-opacity:1;fill-rule:nonzero;stroke:none;stroke-width:18.89763832;stroke-linecap:butt;stroke-linejoin:miter;stroke-miterlimit:4;stroke-dasharray:none;stroke-dashoffset:0;stroke-opacity:1;paint-order:stroke fill markers;color-rendering:auto;image-rendering:auto;shape-rendering:auto;text-rendering:auto;enable-background:accumulate;fill:#000000"
     d="M 563.83984 116.16797 C 548.05687 116.16797 531.69428 117.50122 515.36328 119.44922 L 510.75391 119.44922 L 518.72266 183.98047 C 493.43626 187.32547 469.68342 193.90741 446.65234 203.31641 L 422.23828 143.94141 L 418.99609 145.26953 C 388.55959 157.84113 360.11451 174.39164 333.68359 194.21484 L 330.87109 196.32422 L 369.85547 247.18359 C 350.08184 262.53276 332.50933 280.10528 317.16016 299.87891 L 266.33984 260.93359 L 264.19141 263.66797 C 244.34551 289.46764 227.81767 317.91899 215.24609 348.35547 L 213.91797 351.59766 L 273.29297 376.67578 C 263.908 399.76963 257.7517 423.52064 253.91797 448.74609 L 189.89453 440.15234 L 189.46484 443.62891 C 187.48534 459.46438 186.14455 476.00352 186.14453 492.57422 C 186.14453 508.49732 187.44901 525.00514 189.42578 541.48047 L 189.85547 544.99609 L 253.95703 537.02734 C 257.3025 562.34314 263.9092 586.08105 273.33203 609.13672 L 213.91797 633.55078 L 215.24609 636.79297 C 227.81767 667.22947 244.36821 695.63546 264.19141 722.06641 L 266.30078 724.91797 L 317.16016 685.93359 C 332.50933 705.70721 350.08184 723.27971 369.85547 738.62891 L 330.87109 789.44922 L 333.64453 791.55859 C 359.44421 811.40449 387.89553 827.97142 418.33203 840.54297 L 421.53516 841.87109 L 446.61328 782.41797 C 469.72116 791.81317 493.48103 797.99588 518.72266 801.83203 L 510.08984 865.89453 L 513.64453 866.32422 C 530.11986 868.30122 546.62768 869.64453 562.55078 869.64453 C 578.47388 869.64453 594.98171 868.30102 611.45703 866.32422 L 614.97266 865.89453 L 606.37891 801.83203 C 631.66443 798.48703 655.37983 791.86563 678.41016 782.45703 L 702.86328 841.87109 L 706.10547 840.54297 C 736.54197 827.97142 764.94801 811.42086 791.37891 791.59766 L 794.23047 789.48828 L 755.24609 738.62891 C 775.00504 723.29111 792.56124 705.72838 807.90234 685.97266 L 858.72266 725.58203 L 860.87109 722.76953 C 880.71699 696.96988 897.28392 668.51853 909.85547 638.08203 L 911.18359 634.87891 L 851.73047 609.80078 C 861.14387 586.76813 867.79573 563.05683 871.14453 537.76953 L 935.87109 547.02734 L 936.30078 543.47266 C 938.27778 526.99733 939.58203 510.47304 939.58203 493.90234 C 939.58203 478.11927 938.28804 461.71782 936.33984 445.38672 L 936.33984 440.77734 L 871.80859 448.78516 C 868.46564 423.48051 861.84859 399.72163 852.43359 376.67578 L 911.84766 352.26172 L 910.48047 349.01953 C 897.90892 318.58281 881.39742 290.13795 861.57422 263.70703 L 859.42578 260.89453 L 808.60547 299.87891 C 793.25632 280.10529 775.68381 262.53277 755.91016 247.18359 L 794.85547 196.36328 L 792.08203 194.21484 C 766.25943 174.35131 737.18514 157.83133 707.43359 145.26953 L 704.19141 143.90234 L 679.73828 203.31641 C 656.65926 193.93743 632.91433 187.81464 607.70703 183.98047 L 616.30078 119.91797 L 612.78516 119.48828 C 596.94968 117.50878 580.41054 116.16797 563.83984 116.16797 z M 563.32812 246.55273 C 569.54267 246.54269 575.71809 246.76834 581.84766 247.22266 C 696.26611 255.70349 793.36868 343.35773 808.48828 461.98828 C 825.76733 596.89758 730.68325 720.57052 595.12891 738.51172 L 595.08984 738.51172 C 460.19187 755.78927 335.86463 660.70952 318.56641 525.15234 C 301.28721 390.24157 396.38709 265.86937 531.96484 248.58984 C 542.50477 247.23984 552.97055 246.56948 563.32812 246.55273 z "
     transform="translate(-501.30046,-432.95392)"
     id="path11765" /></g><g
   inkscape:groupmode="layer"
   id="layer1"
   inkscape:label="tools"
   style="display:inline"><g
     id="g11756"
     transform="matrix(0.78178587,0,0,0.78178587,91.216114,126.18265)"><path
       inkscape:connector-curvature="0"
       id="path4096"
       d="m 422.82912,693.98207 c 0.15913,-0.308 0.3654,-2.12202 0.45838,-4.03111 0.093,-1.90912 0.32016,-3.62224 0.50484,-3.80691 0.22945,-0.22944 1.56675,-0.24477 4.22256,-0.0483 2.13772,0.15811 4.00734,0.21296 4.15471,0.12186 0.14737,-0.0911 0.44712,-2.01348 0.66611,-4.272 0.23631,-2.43719 0.5467,-4.1634 0.76358,-4.2466 0.20098,-0.0771 2.08388,0 4.18422,0.16845 2.10035,0.16976 3.9202,0.21043 4.04413,0.0903 0.12393,-0.1201 0.36999,-2.00461 0.54679,-4.18781 0.17681,-2.1832 0.43541,-4.07984 0.57468,-4.21475 0.13926,-0.13492 2.03683,-0.10288 4.21682,0.0712 2.41001,0.19245 4.0789,0.20119 4.25774,0.0224 0.22172,-0.22172 0.82525,-5.76576 0.89107,-8.18524 0.004,-0.15575 1.91172,-0.17661 4.32509,-0.0474 3.49737,0.18732 4.3452,0.14905 4.46324,-0.20141 0.0802,-0.23795 0.28604,-2.07021 0.45754,-4.07168 0.17149,-2.00147 0.45012,-3.77738 0.61917,-3.94643 0.1965,-0.19648 1.73249,-0.1857 4.25809,0.0298 2.1729,0.1855 4.07277,0.21523 4.22195,0.066 0.14917,-0.14918 0.35423,-1.95673 0.45569,-4.01683 0.22098,-4.48691 0.37246,-4.73321 2.74976,-4.47126 0.91138,0.10045 2.73654,0.20848 4.05592,0.24009 l 2.39887,0.0575 0.37734,-4 c 0.20754,-2.2 0.38804,-4.12276 0.40113,-4.27277 0.0131,-0.15005 1.94917,-0.16967 4.30242,-0.0437 2.64437,0.14163 4.35104,0.11203 4.46819,-0.0775 0.10426,-0.1687 0.28922,-2.07014 0.41103,-4.22547 0.1575,-2.78694 0.34352,-3.9656 0.64407,-4.08093 0.23243,-0.0892 2.11809,-0.0291 4.19034,0.13322 2.07226,0.16243 3.93417,0.2383 4.13759,0.16858 0.23499,-0.0806 0.44413,-1.48944 0.57358,-3.8641 0.11205,-2.05555 0.32343,-3.95334 0.46975,-4.21734 0.29787,-0.53748 0.69231,-0.55229 5.50473,-0.20679 l 3.3979,0.24394 0.23023,-4.16272 c 0.14005,-2.53239 0.37586,-4.27171 0.60209,-4.44096 0.21135,-0.15815 2.06706,-0.14506 4.29904,0.0304 2.15993,0.16973 4.03193,0.20387 4.16,0.0759 0.12806,-0.12797 0.37683,-2.05673 0.55283,-4.28617 l 0.32,-4.05351 4.17473,0.11143 c 3.22373,0.086 4.25296,0.0131 4.51812,-0.32 0.18886,-0.23728 0.4433,-2.08743 0.56543,-4.11143 0.12212,-2.024 0.33379,-3.7936 0.47036,-3.93248 0.13657,-0.13885 2.03335,-0.1079 4.21506,0.0688 2.64417,0.21414 4.07344,0.21456 4.28672,0 0.17598,-0.17597 0.46612,-2.15091 0.64477,-4.38877 l 0.32481,-4.06749 2.56,0.15149 c 1.408,0.0833 3.352,0.15533 4.32,0.16 1.75615,0.008 1.76051,0.006 1.99184,-1.11149 0.12751,-0.616 0.34351,-2.488 0.48,-4.16 l 0.24816,-3.04 4.2134,0.10867 c 3.83098,0.0988 4.24087,0.0552 4.5161,-0.48 0.16649,-0.32377 0.39488,-2.16588 0.50753,-4.0936 0.11266,-1.92771 0.33315,-3.63324 0.48999,-3.79008 0.16688,-0.16688 1.97308,-0.13257 4.35463,0.0827 2.23821,0.20234 4.11587,0.32147 4.1726,0.26474 0.0567,-0.0567 0.26938,-1.97271 0.47258,-4.25776 0.2032,-2.28506 0.46479,-4.25191 0.58131,-4.37079 0.11653,-0.11885 1.98478,-0.063 4.15167,0.12419 2.75652,0.23812 4.04092,0.2392 4.27647,0.004 0.27109,-0.2711 0.8109,-5.05849 0.88743,-7.87033 0.0154,-0.56592 0.25001,-0.58608 4.2984,-0.36925 2.69893,0.14454 4.35356,0.11373 4.47536,-0.0833 0.10629,-0.172 0.34275,-2.01805 0.52547,-4.10233 0.18272,-2.08432 0.45383,-3.91127 0.60246,-4.05991 0.14864,-0.14861 1.98123,-0.14125 4.07243,0.0163 2.0912,0.15767 3.97015,0.22867 4.17545,0.15783 0.22366,-0.0772 0.45319,-1.24144 0.57267,-2.9048 0.10967,-1.52682 0.30451,-3.42404 0.43298,-4.21604 l 0.23358,-1.44 2.71375,0.1513 c 1.49256,0.0832 3.43375,0.15523 4.31375,0.16 l 1.6,0.009 0.25619,-2.88 c 0.14091,-1.584 0.33152,-3.5039 0.42358,-4.26647 l 0.16738,-1.38646 4.37642,0.10646 4.37643,0.10647 0.35091,-3.93491 c 0.193,-2.1642 0.51251,-4.09652 0.71001,-4.29402 0.26441,-0.26442 1.39527,-0.26717 4.28908,-0.0106 2.1615,0.19178 4.03198,0.25088 4.15662,0.13139 0.12464,-0.11949 0.32627,-1.98038 0.44805,-4.13533 0.13932,-2.46507 0.36768,-4.03944 0.61581,-4.24537 0.26905,-0.22329 1.58652,-0.21635 4.14609,0.0218 2.06345,0.19202 3.93579,0.2785 4.16076,0.19217 0.28202,-0.10822 0.48138,-1.36102 0.64201,-4.03444 0.14052,-2.33871 0.38871,-4.03321 0.62542,-4.26991 0.29854,-0.29854 1.28172,-0.32408 4.10899,-0.10676 2.0441,0.15712 3.92414,0.20602 4.17785,0.10865 0.34993,-0.13428 0.51768,-1.15442 0.69481,-4.22531 0.16929,-2.93507 0.35237,-4.0939 0.66581,-4.21418 0.23777,-0.0912 2.12779,-0.0309 4.20004,0.134 2.16521,0.17235 3.90383,0.18038 4.08774,0.0189 0.176,-0.15456 0.464,-2.11144 0.64,-4.34863 l 0.32,-4.06761 1.28,0.0133 c 0.704,0.007 2.72,0.0793 4.48,0.16 l 3.2,0.14669 0.2456,-3.84 c 0.1351,-2.112 0.31878,-4.04134 0.40816,-4.28742 0.13347,-0.36736 0.90099,-0.40844 4.28906,-0.22958 3.19862,0.16886 4.18528,0.12556 4.3878,-0.19257 0.14372,-0.22574 0.40711,-2.13843 0.58535,-4.25043 l 0.32403,-3.84 4.38589,0.11191 c 5.12109,0.13066 4.57459,0.66132 4.89363,-4.75191 0.1089,-1.848 0.31395,-3.47717 0.45565,-3.62038 0.14166,-0.14322 2.04121,-0.11798 4.22121,0.0561 2.34205,0.18701 4.08439,0.19895 4.25882,0.0292 0.16234,-0.15801 0.42998,-2.12725 0.59475,-4.37609 0.29651,-4.04695 0.51699,-4.69297 1.51005,-4.42437 0.264,0.0714 1.9431,0.22674 3.73136,0.34517 3.93831,0.26082 3.77882,0.43504 4.06343,-4.43805 0.11142,-1.90765 0.28905,-3.60835 0.39475,-3.77935 0.11984,-0.19393 1.72864,-0.22737 4.27606,-0.0889 3.04656,0.16561 4.14451,0.12394 4.3225,-0.16406 0.13123,-0.21234 0.37862,-2.06753 0.54973,-4.12266 0.17113,-2.05513 0.43289,-3.86214 0.58166,-4.01558 0.1537,-0.15855 1.9704,-0.12764 4.2079,0.0716 2.1656,0.19282 4.05674,0.2313 4.2025,0.0855 0.22048,-0.22046 0.51254,-2.56498 0.96154,-7.71811 0.0695,-0.79828 0.0756,-0.79967 2.78915,-0.64869 1.49568,0.0832 3.43609,0.15522 4.31203,0.16 l 1.59261,0.009 0.23283,-1.28 c 0.12806,-0.704 0.29501,-2.45522 0.37098,-3.8916 0.0759,-1.43637 0.23692,-2.77151 0.35772,-2.96695 0.15405,-0.24927 1.48743,-0.29174 4.46602,-0.14225 l 4.2464,0.2131 0.21043,-2.01309 c 0.11572,-1.1072 0.2104,-2.49823 0.2104,-3.09119 0,-0.59295 0.18,-1.65709 0.4,-2.36474 l 0.4,-1.28664 3.36,0.21491 c 1.848,0.1182 3.72,0.23146 4.16,0.25168 0.77578,0.0357 0.8073,-0.0456 1.0409,-2.68323 0.13248,-1.496 0.38931,-3.72295 0.57075,-4.94878 l 0.32992,-2.22878 -43.13034,-43.13122 c -23.72169,-23.72208 -43.32582,-43.13113 -43.56474,-43.13113 -0.45324,0 -0.68262,0.2579 -3.56649,4.01016 -0.968,1.25948 -4.136,5.35779 -7.04,9.10736 -2.904,3.74958 -5.856,7.5622 -6.56,8.4725 -0.704,0.9103 -2.936,3.79332 -4.96,6.40672 -2.024,2.6134 -4.46018,5.77125 -5.41373,7.01745 -0.95354,1.24619 -5.12954,6.64729 -9.28,12.00244 -4.15045,5.35515 -8.84227,11.42565 -10.42627,13.49001 -1.584,2.06435 -5.76,7.46483 -9.28,12.00105 -3.52,4.53623 -6.904,8.90619 -7.52,9.71102 -0.616,0.80483 -3.06916,3.98288 -5.45146,7.06231 -2.38231,3.07944 -4.61431,5.97594 -4.96,6.43666 -1.04835,1.39718 -20.97539,27.1339 -27.44508,35.44662 -1.97091,2.53237 -3.86446,4.98037 -4.20789,5.44 -0.55202,0.7388 -8.53341,11.08569 -12.83393,16.6376 -0.86991,1.12304 -2.15765,2.79484 -2.86165,3.71512 -3.81879,4.99196 -5.89668,7.678 -18.17758,23.4977 -1.97033,2.5381 -4.30572,5.5621 -5.18975,6.72 -0.88403,1.15791 -2.39033,3.11329 -3.34733,4.34529 -4.30768,5.54551 -8.32623,10.72822 -9.80074,12.64 -0.88234,1.144 -4.25933,5.51126 -7.50443,9.70506 -3.24509,4.19376 -6.47617,8.38723 -7.18017,9.31878 -0.704,0.93158 -3.656,4.7616 -6.56,8.51117 -2.904,3.7496 -5.856,7.56387 -6.56,8.47619 -1.52685,1.97862 -7.95299,10.27648 -10.39432,13.42179 -3.90761,5.0344 -12.93373,16.72836 -17.54214,22.72701 -2.7042,3.52 -5.51676,7.17031 -6.25013,8.11181 -0.73338,0.94151 -1.98141,2.54387 -2.77341,3.5608 -3.07956,3.95418 -9.84568,12.7041 -11.52,14.8976 -0.968,1.26816 -4.136,5.36154 -7.04,9.09642 -2.904,3.73488 -5.56801,7.18077 -5.92001,7.65757 -0.352,0.4768 -1.5881,2.0839 -2.7469,3.57136 -9.05955,11.62899 -16.6131,21.46515 -16.6131,21.63344 0,0.11091 0.76783,1.44128 1.70629,2.95635 0.93845,1.51507 2.71603,4.41066 3.95018,6.43466 1.23414,2.024 4.09169,6.704 6.35012,10.4 2.25842,3.696 4.26453,7.008 4.45802,7.36 1.85698,3.37827 2.11427,3.54675 5.7754,3.78189 4.13648,0.26566 4.60996,0.23267 4.90679,-0.34189 z"
       style="fill:#000000;stroke-width:0.32000002" /><path
       inkscape:connector-curvature="0"
       id="path4094"
       d="m 792.44084,693.74175 c 1.94538,-0.69978 3.20765,-1.37507 4.56755,-2.44352 0.64135,-0.50391 1.29092,-0.91616 1.44352,-0.91616 0.46413,0 10.87249,-10.60829 12.08781,-12.32 4.25764,-5.99661 4.85146,-11.95386 1.7682,-17.73863 -0.77722,-1.45821 -15.58609,-16.42147 -79.75003,-80.58141 l -78.79555,-78.79069 -3.26211,-0.21157 c -3.77659,-0.24494 -3.47236,-0.54782 -3.72172,3.70516 -0.13285,2.26578 -0.19802,2.4363 -1.32619,3.47019 l -1.18648,1.08733 -3.21949,-0.1102 c -3.74558,-0.1282 -3.70415,-0.16347 -3.74152,3.1857 -0.0238,2.13462 -0.46951,3.33973 -1.62168,4.38488 -0.58792,0.53328 -1.29606,0.66576 -4.27276,0.79923 l -3.56805,0.16 -0.16,2.57661 c -0.26994,4.34704 -1.44209,5.42339 -5.90601,5.42339 -1.5917,0 -3.07399,0.11651 -3.29399,0.25888 -0.26947,0.1744 -0.4,1.16656 -0.4,3.04025 v 2.78135 l 80.08,80.03476 c 44.044,44.0191 80.51201,80.31843 81.04001,80.66515 1.06294,0.69799 4.03651,1.90429 5.28,2.14192 1.49472,0.2857 6.55401,-0.0974 7.95849,-0.60262 z"
       style="fill:#000000;stroke-width:0.32000002" /><path
       inkscape:connector-curvature="0"
       id="path4092"
       d="m 548.79531,459.42205 c 0.44054,-0.66 1.94733,-2.64 3.3484,-4.4 1.40107,-1.76 3.59843,-4.5672 4.88301,-6.23822 1.28459,-1.67102 3.46538,-4.47902 4.8462,-6.24 1.38082,-1.76098 3.71376,-4.78578 5.1843,-6.72178 1.47055,-1.936 4.11759,-5.392 5.88232,-7.68 1.76473,-2.288 3.2118,-4.30332 3.2157,-4.4785 0.004,-0.17517 -20.80091,-21.12834 -46.23291,-46.5626 l -46.24,-46.24411 v -1.43677 c 0,-1.21873 -0.27387,-7.59312 -0.75341,-17.53581 l -0.11275,-2.33778 2.27308,-1.8394 c 7.7443,-6.26679 17.60688,-9.41422 30.91308,-9.86526 17.38694,-0.58936 41.0846,4.4295 61.76,13.07998 2.9291,1.22552 3.10095,1.25854 4.71061,0.90524 3.61628,-0.79374 7.4145,-3.31444 9.21554,-6.1159 1.00413,-1.56191 1.75385,-4.21906 1.75385,-6.21599 0,-2.24373 -1.05509,-6.20366 -2.43885,-9.15335 -1.02408,-2.183 -1.35225,-2.57617 -3.11295,-3.72951 -3.74337,-2.45209 -7.56285,-4.87025 -7.69257,-4.87025 -0.0716,0 -1.10677,-0.59327 -2.30033,-1.31839 -3.47088,-2.10863 -7.7114,-4.39746 -12.9353,-6.98186 -1.848,-0.91425 -3.72527,-1.8587 -4.17171,-2.09877 -0.44644,-0.24006 -1.52644,-0.71907 -2.4,-1.06445 -0.87356,-0.34539 -2.45229,-1.01161 -3.50829,-1.48049 -2.74107,-1.21709 -2.90978,-1.28598 -5.92,-2.41734 -4.69129,-1.76318 -5.83209,-2.15819 -9.12,-3.15792 -12.59103,-3.82844 -23.47257,-5.52915 -35.36,-5.52652 -13.62784,0.003 -25.23619,2.2265 -36.96,7.07941 -2.64,1.09279 -5.16,2.16493 -5.6,2.38254 -2.06934,1.0234 -7.92629,4.18211 -8.64,4.65963 -0.44,0.29439 -1.87884,1.24376 -3.19743,2.10971 -1.31858,0.86595 -3.46013,2.36645 -4.75901,3.33445 -1.29888,0.968 -2.66804,1.96446 -3.04258,2.21434 -1.04945,0.70018 -20.68098,20.30089 -20.68098,20.64853 0,0.16867 -0.42139,0.74552 -0.93641,1.2819 -1.68065,1.75033 -7.95015,11.01103 -9.86745,14.57524 -1.05363,1.95865 -1.35695,2.92962 -1.64943,5.28 -1.46716,11.79035 -11.3014,27.82256 -27.75108,45.24103 l -1.96436,2.08005 -3.63564,-0.69431 c -7.3136,-1.39669 -13.26959,-1.01174 -19.47564,1.25877 -3.0519,1.11655 -5.81312,2.50211 -7.91633,3.97236 -1.11888,0.78215 -2.13258,1.4221 -2.25267,1.4221 -0.2769,0 -5.831,5.51596 -5.831,5.79095 0,0.11237 -0.668,1.19537 -1.48444,2.40668 -2.27364,3.37326 -4.88492,9.31205 -4.90769,11.16148 -0.0116,0.94523 42.14623,43.04089 43.10449,43.04089 1.12768,0 5.15613,-1.45269 7.60764,-2.74338 6.87063,-3.61729 12.13406,-8.95603 15.46113,-15.68235 2.66036,-5.37843 3.66743,-9.69341 3.69091,-15.81427 0.0191,-4.97771 -0.53842,-8.15824 -2.22338,-12.68428 -0.59876,-1.60835 -1.08866,-3.06073 -1.08866,-3.2275 0,-0.64806 6.18884,-6.18052 9.44,-8.43881 9.58181,-6.65561 24.13145,-11.59128 38.56001,-13.0807 l 3.04,-0.31381 47.83987,47.83256 c 26.31192,26.3079 48.01812,47.83254 48.23599,47.83254 0.21786,0 0.75656,-0.54 1.19712,-1.2 z"
       style="fill:#000000;stroke-width:0.32000002" /><path
       id="path4090"
       d="m 749.53906,240 c -0.61265,-0.0293 -1.48129,0.2051 -3.59961,0.80664 -12.60602,3.57973 -22.26238,12.46799 -28.92968,26.63281 -1.8784,3.9907 -2.78502,6.72246 -3.69532,11.12891 -1.64221,7.94932 -4.08776,12.57934 -9.46875,17.92773 -4.17392,4.14864 -8.39294,6.47828 -13.08203,7.22461 -6.91613,1.10078 -13.37294,4.116 -17.57422,8.20508 -2.55699,2.4887 -5.62376,-1.0215 31.8086,36.41211 18.45968,18.46027 33.73463,33.56445 33.94336,33.56445 0.20877,0 3.30531,-2.12619 6.88086,-4.72461 3.57555,-2.59842 7.46116,-5.40665 8.63671,-6.24023 l 2.13868,-1.51562 h 17.54296 c 14.44638,-9.7e-4 18.04566,-0.0895 20.39258,-0.5 5.2918,-0.92564 10.50337,-3.0045 14.86328,-5.92969 3.32896,-2.23351 43.12468,-41.89075 44.25,-44.09571 1.57091,-3.07811 0.64557,-6.34542 -2.32812,-8.22265 -1.44877,-0.91456 -1.30211,-0.92528 -5.55664,0.40039 -2.68973,0.83808 -3.2485,0.8978 -8.47852,0.90234 -6.14173,0.005 -7.94727,-0.28591 -13.94336,-2.25 -3.54323,-1.16063 -8.63951,-3.4933 -11.26367,-5.15625 -0.92742,-0.58771 -1.75933,-1.06836 -1.84961,-1.06836 -0.0902,0 -1.18017,-0.68353 -2.42187,-1.51953 -1.24172,-0.836 -2.4972,-1.66384 -2.78907,-1.83984 -0.29183,-0.176 -1.23884,-0.89561 -2.10546,-1.59961 -0.86663,-0.704 -1.90101,-1.49772 -2.29688,-1.76172 -0.3959,-0.264 -1.62986,-1.12886 -2.74414,-1.92383 -5.6664,-4.04278 -16.28443,-9.90131 -22.02734,-12.1543 -0.968,-0.37975 -2.19075,-0.88768 -2.71875,-1.12695 -2.4048,-1.08979 -4.31574,-1.797 -11.26953,-4.17383 -1.26966,-0.43398 -4.0382,-1.28601 -6.15235,-1.89453 -3.63244,-1.04552 -5.62908,-2.00263 -7.31836,-3.50781 -3.36474,-2.99808 -4.04733,-4.29878 -4.05469,-7.71484 -0.005,-2.34551 0.10455,-2.79842 1.21485,-5.04493 0.71472,-1.44616 1.86262,-3.11066 2.77344,-4.02148 6.22393,-6.22392 7.30597,-8.47814 5.75586,-11.98242 -0.63143,-1.42749 -1.07571,-1.79918 -3.49415,-2.92188 -0.39664,-0.18414 -0.67146,-0.29687 -1.03906,-0.31445 z m -22.33398,71.8418 c 3.04956,0.027 6.38228,0.18926 9.15625,0.48047 12.86083,1.3501 27.34183,5.72574 40.13281,12.12695 2.38041,1.19127 6.39083,3.35087 6.86914,3.69922 0.176,0.12817 1.28155,0.74872 2.45899,1.3789 3.23657,1.7322 3.52643,1.90553 4.78515,2.85547 0.64135,0.484 1.27758,0.87891 1.41211,0.87891 0.50634,0 4.57508,4.38699 5.56836,6.0039 1.9152,3.11762 2.41364,6.80896 1.4043,10.40626 -0.42125,1.50139 -0.90031,2.27415 -2.32031,3.74804 -3.40129,3.53039 -7.84741,4.77782 -13.62891,3.82227 -2.9697,-0.49082 -7.0179,-2.01129 -11.52344,-4.33008 -13.86032,-7.13319 -26.31809,-11.32647 -37.9082,-12.75781 -2.19475,-0.27104 -5.0107,-0.49219 -6.25781,-0.49219 -4.29741,0 -11.00347,-2.90771 -14.35547,-6.22461 -2.97197,-2.94086 -4.9961,-7.30997 -4.9961,-10.78516 0,-4.74098 5.32853,-9.49589 11.74219,-10.47851 1.64509,-0.25205 4.41137,-0.35906 7.46094,-0.33203 z"
       style="fill:#000000;stroke-width:0.32000002"
       inkscape:connector-curvature="0" /></g></g></svg>